Coordinates
version=1
nRows=26
nColumns=22
inDegrees=yes

Units are S.I. units (second, meters, Newtons, ...)
If the header above contains a line with 'inDegrees', this indicates whether rotational values are in degrees (yes) or radians (no).

endheader
time	pelvis_tilt	pelvis_list	pelvis_rotation	pelvis_tx	pelvis_ty	pelvis_tz	hip_flexion_r	hip_adduction_r	hip_rotation_r	knee_angle_r	ankle_angle_r	subtalar_angle_r	hip_flexion_l	hip_adduction_l	hip_rotation_l	knee_angle_l	ankle_angle_l	subtalar_angle_l	lumbar_extension	lumbar_bending	lumbar_rotation
      2.56000000	      1.84902984	      3.16395136	    -34.66438402	     -0.25220162	      1.00686391	     -0.28729095	     18.04051969	     -6.43029371	     -6.58414579	    -58.20990420	      8.57406888	      4.17291772	      4.24289624	      2.32344816	    -12.75025036	    -14.03566357	     10.98010394	      3.28365759	     -4.73094297	     -7.57571023	     -1.93125092
      2.57000000	      1.76306885	      2.96530365	    -34.79838040	     -0.24445106	      1.00725297	     -0.28341408	     19.14383289	     -6.20433035	     -7.31999091	    -57.41908511	      9.01271414	      4.22956341	      3.33467878	      2.23435811	    -12.90936640	    -13.43764613	     11.25832909	      3.43389027	     -4.86022702	     -7.33094573	     -2.38605197
      2.58000000	      1.68224841	      2.78536074	    -34.92883367	     -0.23672338	      1.00747940	     -0.27947393	     20.20163250	     -6.01910189	     -8.08881574	    -56.48014772	      9.44034789	      4.26821383	      2.43117662	      2.16786580	    -13.06464158	    -12.83443456	     11.52495066	      3.54795175	     -4.97994800	     -7.10624824	     -2.82092337
      2.59000000	      1.61123947	      2.61316138	    -35.05865965	     -0.22899746	      1.00756093	     -0.27545130	     21.19561300	     -5.86374965	     -8.88010885	    -55.39509054	      9.85026973	      4.28592776	      1.51846914	      2.11813214	    -13.21625568	    -12.22342050	     11.78428582	      3.62935855	     -5.09811661	     -6.89211528	     -3.23522824
      2.60000000	      1.54843069	      2.44793319	    -35.18695058	     -0.22128968	      1.00749308	     -0.27132055	     22.12331585	     -5.72707295	     -9.67677229	    -54.17155654	     10.24318015	      4.27641208	      0.60343038	      2.07877726	    -13.37536922	    -11.61539850	     12.03584920	      3.66912199	     -5.21661962	     -6.69481299	     -3.62976665
      2.61000000	      1.49502936	      2.28414388	    -35.32124316	     -0.21357097	      1.00728051	     -0.26709973	     22.97779971	     -5.60191070	    -10.46457733	    -52.81413955	     10.60731321	      4.23896757	     -0.31559063	      2.04900364	    -13.53602399	    -11.02094707	     12.28355218	      3.67106090	     -5.33722769	     -6.49600238	     -4.00645805
      2.62000000	      1.45126173	      2.11823434	    -35.45543820	     -0.20587484	      1.00693001	     -0.26275960	     23.75481593	     -5.47627351	    -11.24046172	    -51.32736665	     10.92259230	      4.17406122	     -1.23782403	      2.02059402	    -13.69348262	    -10.44344861	     12.53205401	      3.64369090	     -5.46791445	     -6.30679737	     -4.35611993
      2.63000000	      1.41070585	      1.95789267	    -35.58742306	     -0.19819461	      1.00642600	     -0.25831102	     24.46310847	     -5.34756696	    -11.99934694	    -49.71274457	     11.19282384	      4.09766317	     -2.14429353	      1.99497473	    -13.85412322	     -9.90189576	     12.78909359	      3.59807170	     -5.59741300	     -6.12222199	     -4.70175617
      2.64000000	      1.37901525	      1.79921414	    -35.71146514	     -0.19054155	      1.00578413	     -0.25374231	     25.09368977	     -5.21545391	    -12.75912822	    -47.97295195	     11.38852295	      4.02035731	     -3.04148465	      1.96914543	    -14.01366196	     -9.39580846	     13.06021268	      3.54527557	     -5.73653586	     -5.94966261	     -5.03306297
      2.65000000	      1.35205309	      1.64484761	    -35.82705233	     -0.18290218	      1.00499706	     -0.24905837	     25.65022149	     -5.07750847	    -13.52577785	    -46.11086847	     11.51434724	      3.96127635	     -3.92274042	      1.94241591	    -14.16715267	     -8.93024779	     13.34803294	      3.49418078	     -5.87749804	     -5.78412641	     -5.34959066
      2.66000000	      1.33557347	      1.49886857	    -35.93411226	     -0.17528606	      1.00407088	     -0.24424409	     26.13116296	     -4.93767849	    -14.30969986	    -44.13304576	     11.55712485	      3.93925631	     -4.79132861	      1.92042145	    -14.31725093	     -8.50404464	     13.65210081	      3.45040036	     -6.02215016	     -5.63785701	     -5.64281433
      2.67000000	      1.32238907	      1.36322041	    -36.02601718	     -0.16769355	      1.00299555	     -0.23931595	     26.54626078	     -4.78859384	    -15.10252842	    -42.04938223	     11.52038465	      3.98292942	     -5.63706254	      1.89821937	    -14.46542901	     -8.12001573	     13.97501913	      3.41614195	     -6.16543969	     -5.50313697	     -5.93295265
      2.68000000	      1.32316237	      1.24038703	    -36.10643463	     -0.16010940	      1.00178295	     -0.23425996	     26.89054987	     -4.63716880	    -15.90822904	    -39.87322274	     11.40680574	      4.10440091	     -6.47556968	      1.88641766	    -14.61220146	     -7.76682677	     14.31163245	      3.39546480	     -6.31030674	     -5.39120483	     -6.20568292
      2.69000000	      1.31584291	      1.13322191	    -36.16936592	     -0.15254960	      1.00040992	     -0.22909115	     27.18996302	     -4.46946061	    -16.71379918	    -37.62066775	     11.21099181	      4.31169985	     -7.27612112	      1.86920495	    -14.75139093	     -7.46030805	     14.66354306	      3.38184806	     -6.43695117	     -5.28666487	     -6.48066002
      2.70000000	      1.34097598	      1.03363715	    -36.22447339	     -0.14496436	      0.99892510	     -0.22379382	     27.41315707	     -4.31312327	    -17.54040411	    -35.32447454	     10.97441346	      4.61790577	     -8.09753873	      1.87164219	    -14.89013284	     -7.17044248	     15.02458846	      3.39216787	     -6.58125492	     -5.21303279	     -6.70775754
      2.71000000	      1.35124842	      0.95775181	    -36.25941584	     -0.13739056	      0.99727540	     -0.21840613	     27.61467342	     -4.14146962	    -18.33676818	    -32.98954808	     10.67875159	      4.99866287	     -8.86479319	      1.86995611	    -15.02579174	     -6.93653118	     15.39875943	      3.40794970	     -6.69429098	     -5.14315994	     -6.95293136
      2.72000000	      1.37985983	      0.89427432	    -36.28633076	     -0.12978922	      0.99550668	     -0.21290039	     27.76900826	     -3.97932083	    -19.13303895	    -30.65463941	     10.39001816	      5.48086756	     -9.62807424	      1.87962083	    -15.16573213	     -6.73686069	     15.78458441	      3.44825112	     -6.80880292	     -5.09470638	     -7.16418061
      2.73000000	      1.41147768	      0.84793634	    -36.30470434	     -0.12216072	      0.99361159	     -0.20728961	     27.89845390	     -3.82254690	    -19.91496681	    -28.34041058	     10.12169858	      6.06397962	    -10.36430886	      1.89402573	    -15.30716864	     -6.58396900	     16.18506619	      3.51640249	     -6.90923343	     -5.05873018	     -7.35104680
      2.74000000	      1.45458904	      0.82779830	    -36.31929104	     -0.11452860	      0.99161370	     -0.20158255	     28.00720496	     -3.67794982	    -20.62871599	    -26.06232205	      9.89100729	      6.76736125	    -11.06946522	      1.92577572	    -15.42616935	     -6.48806470	     16.59118936	      3.63406284	     -7.00081049	     -5.04726371	     -7.51579191
      2.75000000	      1.46615363	      0.82387749	    -36.31448795	     -0.10684226	      0.98949313	     -0.19577194	     28.12247466	     -3.53037841	    -21.33383290	    -23.84117357	      9.70943165	      7.45106863	    -11.70015932	      1.93122066	    -15.56845362	     -6.47615746	     17.00586652	      3.75152797	     -7.04318643	     -5.01709672	     -7.67683866
      2.76000000	      1.47179764	      0.83235584	    -36.29944551	     -0.09909614	      0.98731120	     -0.18984760	     28.22251649	     -3.38884882	    -21.97523791	    -21.69382141	      9.57460783	      8.16406269	    -12.29530438	      1.92769136	    -15.69427572	     -6.52494855	     17.41445752	      3.91305221	     -7.06406692	     -4.98336549	     -7.82395222
      2.77000000	      1.46063586	      0.84624843	    -36.26974331	     -0.09127948	      0.98509390	     -0.18378690	     28.31188910	     -3.24732838	    -22.55273071	    -19.64355112	      9.47738808	      8.83399242	    -12.84784718	      1.89868501	    -15.79950784	     -6.64003468	     17.80847790	      4.10896595	     -7.05744277	     -4.93338973	     -7.95950236
      2.78000000	      1.43578410	      0.86303741	    -36.22152260	     -0.08335701	      0.98287885	     -0.17758626	     28.38292341	     -3.11091917	    -23.04217434	    -17.70659079	      9.41036094	      9.40710408	    -13.36434388	      1.84334384	    -15.86418797	     -6.82198574	     18.16861251	      4.33722830	     -7.02435455	     -4.86356911	     -8.08873725
      2.79000000	      1.40340086	      0.87142491	    -36.15460642	     -0.07530575	      0.98071161	     -0.17121544	     28.42417820	     -2.98175666	    -23.44495472	    -15.91313583	      9.36642684	      9.87246939	    -13.86789390	      1.75523660	    -15.87308578	     -7.05302329	     18.48399701	      4.61598723	     -6.97729120	     -4.77068703	     -8.20771912
      2.80000000	      1.36387686	      0.87899319	    -36.06599557	     -0.06709872	      0.97861334	     -0.16466563	     28.44399829	     -2.87481760	    -23.75737426	    -14.29663551	      9.33914955	     10.17671958	    -14.35716741	      1.64058340	    -15.81982095	     -7.32789731	     18.73248947	      4.92516241	     -6.90825524	     -4.66149846	     -8.32933352
      2.81000000	      1.32733058	      0.87516015	    -35.95490142	     -0.05871589	      0.97662891	     -0.15793305	     28.43101118	     -2.79586048	    -23.99022426	    -12.89066809	      9.32932789	     10.33231845	    -14.85328321	      1.49648786	    -15.69606239	     -7.63532348	     18.90663316	      5.29401140	     -6.83546607	     -4.52812069	     -8.46348216
